<svg width="184" height="27" viewBox="0 0 184 27" fill="none" xmlns="http://www.w3.org/2000/svg">
<path d="M14.12 26.396C11.312 26.396 8.9 25.856 6.884 24.776C4.868 23.696 3.32 22.172 2.24 20.204C1.184 18.236 0.656 15.932 0.656 13.292C0.656 11.324 0.956 9.536 1.556 7.928C2.18 6.32 3.068 4.94 4.22 3.788C5.396 2.636 6.812 1.76 8.468 1.16C10.148 0.535999 12.032 0.223999 14.12 0.223999C15.224 0.223999 16.364 0.355999 17.54 0.619998C18.74 0.859998 19.796 1.232 20.708 1.736C21.38 2.096 21.848 2.552 22.112 3.104C22.376 3.656 22.46 4.22 22.364 4.796C22.292 5.372 22.088 5.888 21.752 6.344C21.416 6.8 20.984 7.112 20.456 7.28C19.928 7.424 19.352 7.34 18.728 7.028C18.008 6.692 17.288 6.44 16.568 6.272C15.872 6.08 15.14 5.984 14.372 5.984C12.884 5.984 11.636 6.272 10.628 6.848C9.644 7.4 8.9 8.216 8.396 9.296C7.892 10.376 7.64 11.708 7.64 13.292C7.64 14.876 7.892 16.22 8.396 17.324C8.9 18.404 9.644 19.232 10.628 19.808C11.636 20.36 12.884 20.636 14.372 20.636C14.996 20.636 15.668 20.564 16.388 20.42C17.108 20.252 17.816 20 18.512 19.664C19.232 19.352 19.868 19.268 20.42 19.412C20.996 19.556 21.452 19.844 21.788 20.276C22.148 20.708 22.376 21.212 22.472 21.788C22.568 22.34 22.484 22.892 22.22 23.444C21.98 23.996 21.548 24.44 20.924 24.776C20.084 25.28 19.04 25.676 17.792 25.964C16.568 26.252 15.344 26.396 14.12 26.396ZM32.3892 26.396C30.0852 26.396 28.3812 25.784 27.2772 24.56C26.1972 23.312 25.6572 21.44 25.6572 18.944V3.536C25.6572 2.48 25.9332 1.676 26.4852 1.124C27.0372 0.571998 27.8172 0.295998 28.8252 0.295998C29.8572 0.295998 30.6492 0.571998 31.2012 1.124C31.7772 1.676 32.0652 2.48 32.0652 3.536V18.728C32.0652 19.616 32.2332 20.264 32.5692 20.672C32.9292 21.08 33.3852 21.284 33.9372 21.284C34.1052 21.284 34.2732 21.272 34.4412 21.248C34.6332 21.2 34.8372 21.164 35.0532 21.14C35.4612 21.14 35.7612 21.296 35.9532 21.608C36.1692 21.92 36.2772 22.556 36.2772 23.516C36.2772 24.356 36.1092 24.992 35.7732 25.424C35.4372 25.832 34.9212 26.096 34.2252 26.216C34.0332 26.24 33.7572 26.276 33.3972 26.324C33.0372 26.372 32.7012 26.396 32.3892 26.396ZM47.645 26.396C45.485 26.396 43.613 26.024 42.029 25.28C40.469 24.512 39.269 23.432 38.429 22.04C37.589 20.648 37.169 19.004 37.169 17.108C37.169 15.284 37.565 13.688 38.357 12.32C39.173 10.928 40.277 9.848 41.669 9.08C43.085 8.288 44.693 7.892 46.493 7.892C47.813 7.892 49.013 8.108 50.093 8.54C51.173 8.948 52.097 9.56 52.865 10.376C53.633 11.168 54.209 12.128 54.593 13.256C55.001 14.384 55.205 15.644 55.205 17.036C55.205 17.516 55.073 17.876 54.809 18.116C54.545 18.332 54.125 18.44 53.549 18.44H42.533V15.416H50.525L49.949 15.884C49.949 14.996 49.829 14.276 49.589 13.724C49.349 13.172 48.989 12.752 48.509 12.464C48.053 12.176 47.477 12.032 46.781 12.032C46.037 12.032 45.389 12.212 44.837 12.572C44.309 12.908 43.901 13.412 43.613 14.084C43.325 14.756 43.181 15.596 43.181 16.604V16.928C43.181 18.632 43.553 19.856 44.297 20.6C45.065 21.32 46.241 21.68 47.825 21.68C48.353 21.68 48.953 21.62 49.625 21.5C50.321 21.356 50.981 21.164 51.605 20.924C52.229 20.684 52.769 20.648 53.225 20.816C53.681 20.96 54.029 21.224 54.269 21.608C54.533 21.968 54.677 22.388 54.701 22.868C54.725 23.324 54.617 23.78 54.377 24.236C54.137 24.668 53.741 25.004 53.189 25.244C52.349 25.628 51.449 25.916 50.489 26.108C49.553 26.3 48.605 26.396 47.645 26.396ZM65.4973 26.324C64.6573 26.324 63.9373 26.12 63.3373 25.712C62.7613 25.28 62.2813 24.644 61.8973 23.804L56.7493 12.032C56.4613 11.312 56.3653 10.64 56.4613 10.016C56.5573 9.392 56.8573 8.9 57.3613 8.54C57.8893 8.156 58.6093 7.964 59.5213 7.964C60.2893 7.964 60.9013 8.144 61.3573 8.504C61.8373 8.84 62.2693 9.512 62.6533 10.52L66.2893 19.88H65.0653L68.8813 10.484C69.2653 9.5 69.6973 8.84 70.1773 8.504C70.6573 8.144 71.3173 7.964 72.1573 7.964C72.8773 7.964 73.4533 8.156 73.8853 8.54C74.3413 8.9 74.6173 9.392 74.7133 10.016C74.8093 10.64 74.6893 11.312 74.3533 12.032L69.0973 23.84C68.7373 24.68 68.2573 25.304 67.6573 25.712C67.0813 26.12 66.3613 26.324 65.4973 26.324ZM86.352 26.396C84.192 26.396 82.32 26.024 80.736 25.28C79.176 24.512 77.976 23.432 77.136 22.04C76.296 20.648 75.876 19.004 75.876 17.108C75.876 15.284 76.272 13.688 77.064 12.32C77.88 10.928 78.984 9.848 80.376 9.08C81.792 8.288 83.4 7.892 85.2 7.892C86.52 7.892 87.72 8.108 88.8 8.54C89.88 8.948 90.804 9.56 91.572 10.376C92.34 11.168 92.916 12.128 93.3 13.256C93.708 14.384 93.912 15.644 93.912 17.036C93.912 17.516 93.78 17.876 93.516 18.116C93.252 18.332 92.832 18.44 92.256 18.44H81.24V15.416H89.232L88.656 15.884C88.656 14.996 88.536 14.276 88.296 13.724C88.056 13.172 87.696 12.752 87.216 12.464C86.76 12.176 86.184 12.032 85.488 12.032C84.744 12.032 84.096 12.212 83.544 12.572C83.016 12.908 82.608 13.412 82.32 14.084C82.032 14.756 81.888 15.596 81.888 16.604V16.928C81.888 18.632 82.26 19.856 83.004 20.6C83.772 21.32 84.948 21.68 86.532 21.68C87.06 21.68 87.66 21.62 88.332 21.5C89.028 21.356 89.688 21.164 90.312 20.924C90.936 20.684 91.476 20.648 91.932 20.816C92.388 20.96 92.736 21.224 92.976 21.608C93.24 21.968 93.384 22.388 93.408 22.868C93.432 23.324 93.324 23.78 93.084 24.236C92.844 24.668 92.448 25.004 91.896 25.244C91.056 25.628 90.156 25.916 89.196 26.108C88.26 26.3 87.312 26.396 86.352 26.396ZM99.9488 26.324C98.8928 26.324 98.0768 26.048 97.5008 25.496C96.9488 24.944 96.6728 24.14 96.6728 23.084V11.168C96.6728 10.136 96.9368 9.344 97.4648 8.792C98.0168 8.24 98.7968 7.964 99.8048 7.964C100.813 7.964 101.581 8.24 102.109 8.792C102.637 9.344 102.901 10.136 102.901 11.168V12.644H102.541C102.781 11.204 103.393 10.064 104.377 9.224C105.385 8.384 106.633 7.94 108.121 7.892C108.817 7.868 109.333 8.048 109.669 8.432C110.029 8.792 110.221 9.476 110.245 10.484C110.245 11.348 110.065 12.032 109.705 12.536C109.345 13.04 108.661 13.34 107.653 13.436L106.825 13.508C105.553 13.628 104.629 13.988 104.053 14.588C103.477 15.164 103.189 16.028 103.189 17.18V23.084C103.189 24.14 102.913 24.944 102.361 25.496C101.809 26.048 101.005 26.324 99.9488 26.324ZM122.146 26.396C121.186 26.396 120.178 26.324 119.122 26.18C118.09 26.06 117.106 25.868 116.17 25.604C115.234 25.34 114.394 25.028 113.65 24.668C113.002 24.356 112.546 23.948 112.282 23.444C112.018 22.916 111.922 22.364 111.994 21.788C112.066 21.212 112.27 20.708 112.606 20.276C112.942 19.82 113.386 19.52 113.938 19.376C114.49 19.208 115.114 19.28 115.81 19.592C116.722 20.024 117.754 20.36 118.906 20.6C120.058 20.84 121.138 20.96 122.146 20.96C123.73 20.96 124.834 20.756 125.458 20.348C126.106 19.916 126.43 19.388 126.43 18.764C126.43 18.212 126.202 17.768 125.746 17.432C125.314 17.096 124.534 16.808 123.406 16.568L119.194 15.668C116.89 15.188 115.174 14.348 114.046 13.148C112.918 11.948 112.354 10.4 112.354 8.504C112.354 7.256 112.606 6.128 113.11 5.12C113.638 4.088 114.37 3.212 115.306 2.492C116.266 1.772 117.394 1.22 118.69 0.835998C120.01 0.427999 121.474 0.223999 123.082 0.223999C124.33 0.223999 125.59 0.367999 126.862 0.655998C128.158 0.919999 129.274 1.328 130.21 1.88C130.762 2.168 131.158 2.564 131.398 3.068C131.638 3.572 131.734 4.1 131.686 4.652C131.638 5.18 131.446 5.648 131.11 6.056C130.798 6.464 130.366 6.74 129.814 6.884C129.286 7.004 128.65 6.908 127.906 6.596C127.21 6.284 126.418 6.056 125.53 5.912C124.666 5.744 123.826 5.66 123.01 5.66C122.122 5.66 121.366 5.768 120.742 5.984C120.118 6.176 119.638 6.464 119.302 6.848C118.99 7.232 118.834 7.676 118.834 8.18C118.834 8.684 119.038 9.116 119.446 9.476C119.878 9.812 120.658 10.1 121.786 10.34L125.962 11.24C128.29 11.744 130.03 12.572 131.182 13.724C132.334 14.876 132.91 16.376 132.91 18.224C132.91 19.472 132.658 20.6 132.154 21.608C131.65 22.616 130.93 23.48 129.994 24.2C129.058 24.896 127.93 25.436 126.61 25.82C125.29 26.204 123.802 26.396 122.146 26.396ZM139.619 26C138.491 26 137.627 25.712 137.027 25.136C136.451 24.536 136.163 23.684 136.163 22.58V4.04C136.163 2.936 136.451 2.096 137.027 1.52C137.627 0.919999 138.491 0.619998 139.619 0.619998H151.823C152.687 0.619998 153.335 0.835999 153.767 1.268C154.199 1.7 154.415 2.324 154.415 3.14C154.415 3.98 154.199 4.628 153.767 5.084C153.335 5.516 152.687 5.732 151.823 5.732H142.499V10.556H151.031C151.871 10.556 152.507 10.772 152.939 11.204C153.395 11.636 153.623 12.272 153.623 13.112C153.623 13.952 153.395 14.588 152.939 15.02C152.507 15.452 151.871 15.668 151.031 15.668H142.499V20.888H151.823C152.687 20.888 153.335 21.116 153.767 21.572C154.199 22.004 154.415 22.628 154.415 23.444C154.415 24.284 154.199 24.92 153.767 25.352C153.335 25.784 152.687 26 151.823 26H139.619ZM170.587 26.396C168.019 26.396 165.763 25.856 163.819 24.776C161.875 23.672 160.363 22.136 159.283 20.168C158.227 18.2 157.699 15.908 157.699 13.292C157.699 11.324 157.999 9.536 158.599 7.928C159.223 6.32 160.099 4.94 161.227 3.788C162.379 2.636 163.747 1.76 165.331 1.16C166.915 0.535999 168.667 0.223999 170.587 0.223999C173.155 0.223999 175.399 0.763999 177.319 1.844C179.263 2.924 180.775 4.448 181.855 6.416C182.935 8.36 183.475 10.652 183.475 13.292C183.475 15.26 183.163 17.048 182.539 18.656C181.939 20.264 181.063 21.656 179.911 22.832C178.783 23.984 177.427 24.872 175.843 25.496C174.259 26.096 172.507 26.396 170.587 26.396ZM170.587 20.852C171.859 20.852 172.939 20.552 173.827 19.952C174.715 19.352 175.399 18.488 175.879 17.36C176.359 16.232 176.599 14.876 176.599 13.292C176.599 10.916 176.071 9.068 175.015 7.748C173.959 6.428 172.483 5.768 170.587 5.768C169.339 5.768 168.259 6.068 167.347 6.668C166.459 7.244 165.775 8.096 165.295 9.224C164.815 10.328 164.575 11.684 164.575 13.292C164.575 15.668 165.103 17.528 166.159 18.872C167.215 20.192 168.691 20.852 170.587 20.852Z" fill="#5DA389"/>
</svg>
